<svg id="a6f8056c-beb0-42b4-8c13-9cdc8fb7c16b" data-name="Layer 1" xmlns="http://www.w3.org/2000/svg" viewBox="0 0 582 175"><path d="M195.24,151.24a18.86,18.86,0,0,1-7.11-7.5,21.58,21.58,0,0,1-2.51-10.32,18.94,18.94,0,0,1,3.3-11.21,20.64,20.64,0,0,1,8.48-7A25.26,25.26,0,0,1,208,112.85a19.81,19.81,0,0,1,10.61,2.82,19.19,19.19,0,0,1,7,7.46A20.85,20.85,0,0,1,228,133a19.37,19.37,0,0,1-3,10.6,21.93,21.93,0,0,1-8.16,7.63A22.76,22.76,0,0,1,205.75,154,20,20,0,0,1,195.24,151.24Zm19-.89a13.46,13.46,0,0,0,4.41-6,25.56,25.56,0,0,0,1.59-9.5,28.77,28.77,0,0,0-1.78-10.45,16.18,16.18,0,0,0-5.14-7.2,12.5,12.5,0,0,0-7.88-2.61,10.28,10.28,0,0,0-8.89,4.35q-3.1,4.35-3.11,12.16a30.43,30.43,0,0,0,1.87,11,18.14,18.14,0,0,0,5.15,7.59,11.22,11.22,0,0,0,7.4,2.73A10.6,10.6,0,0,0,214.23,150.35Z" style="fill:#471010"/><path d="M295.3,152.86c0,.25-.05.38-.13.38H283.86q-1.39,0-5.2-5.24a168.39,168.39,0,0,1-9.21-14.64,13.43,13.43,0,0,1-1.46.06c-1.65,0-2.82,0-3.5-.06v14.73a9.26,9.26,0,0,0,.32,2.86,1.92,1.92,0,0,0,1.24,1.21,9.9,9.9,0,0,0,2.95.32c.09,0,.13.12.13.38s0,.38-.13.38c-1.39,0-2.49,0-3.3-.07l-4.82-.06-4.64.06c-.85.05-2,.07-3.43.07-.13,0-.19-.13-.19-.38s.06-.38.19-.38a9.9,9.9,0,0,0,2.95-.32,2,2,0,0,0,1.27-1.24,8.59,8.59,0,0,0,.35-2.83v-29.4a8.67,8.67,0,0,0-.32-2.79,2,2,0,0,0-1.27-1.24,8.85,8.85,0,0,0-2.92-.35c-.08,0-.12-.13-.12-.38s0-.38.12-.38l3.37.06c1.95.08,3.49.13,4.64.13s2.58-.07,4.06-.19c.46,0,1.07-.09,1.81-.13s1.62-.07,2.63-.07q5.85,0,9.06,2.13a6.76,6.76,0,0,1,3.2,5.94,9.89,9.89,0,0,1-1.78,5.59,13.71,13.71,0,0,1-4.63,4.32q5.07,8,8.54,12.51a35.61,35.61,0,0,0,6.16,6.57,8.69,8.69,0,0,0,5.24,2.07C295.25,152.48,295.3,152.6,295.3,152.86Zm-27.12-21.09a7.82,7.82,0,0,0,3.62-.7,4.13,4.13,0,0,0,1.94-2.41,15.21,15.21,0,0,0,.6-4.83q0-5.2-1.53-7.17a5.2,5.2,0,0,0-4.38-2,4.08,4.08,0,0,0-3.05,1,4.61,4.61,0,0,0-.89,3.18v12.7A22.91,22.91,0,0,0,268.18,131.77Z" style="fill:#471010"/><path d="M359.44,152.86c0,.25-.11.38-.32.38-.85,0-2.16,0-3.94-.13s-3.19-.13-4-.13c-1.06,0-2.35.05-3.87.13s-2.58.13-3.43.13c-.17,0-.25-.13-.25-.38s.08-.38.25-.38a6,6,0,0,0,2.38-.35,1.26,1.26,0,0,0,.73-1.24,9.74,9.74,0,0,0-1.27-3.62l-6.6-13H327.81l-4.51,10a8.43,8.43,0,0,0-.82,3.43,4.28,4.28,0,0,0,1.62,3.56,6.9,6.9,0,0,0,4.35,1.27c.21,0,.31.12.31.38s-.1.38-.31.38c-.76,0-1.87,0-3.3-.13-1.61-.08-3-.13-4.2-.13s-2.52.05-4.12.13c-1.44.09-2.61.13-3.5.13-.17,0-.25-.13-.25-.38s.08-.38.25-.38a5.76,5.76,0,0,0,3-.73,8.15,8.15,0,0,0,2.41-2.61,44.54,44.54,0,0,0,2.86-5.56l13.78-30.29c.08-.13.27-.19.57-.19s.53.06.57.19l15.88,31.25a33.09,33.09,0,0,0,3.68,6.22,4.11,4.11,0,0,0,3.05,1.72C359.33,152.48,359.44,152.6,359.44,152.86Zm-30.8-20.39h9.59l-5.08-10Z" style="fill:#471010"/><path d="M409.93,113.32a19.53,19.53,0,0,1,4.76,1.24,1.29,1.29,0,0,1,.73.48,3.53,3.53,0,0,1,.29,1l.76,8.83c0,.13-.11.21-.32.25s-.34,0-.38-.19a18.71,18.71,0,0,0-5.78-7.74,13.55,13.55,0,0,0-8.38-2.74,11.39,11.39,0,0,0-9.72,4.64q-3.42,4.64-3.43,12.45a29.27,29.27,0,0,0,1.88,10.67,18.16,18.16,0,0,0,5.27,7.65,11.73,11.73,0,0,0,7.71,2.83,11,11,0,0,0,7.27-2.7,23.21,23.21,0,0,0,5.75-8.23c0-.17.18-.23.41-.19s.35.13.35.26l-1,8.63a2.85,2.85,0,0,1-.28,1,1.78,1.78,0,0,1-.73.47,33.17,33.17,0,0,1-11.63,2.1,25.1,25.1,0,0,1-12.95-3.08,19.51,19.51,0,0,1-7.66-7.81,21.27,21.27,0,0,1-2.44-9.88,18.05,18.05,0,0,1,3.27-10.67,21.59,21.59,0,0,1,8.7-7.17,27.09,27.09,0,0,1,11.66-2.54A38.77,38.77,0,0,1,409.93,113.32Z" style="fill:#471010"/><path d="M452.41,147.84a7.89,7.89,0,0,0,.26,2.38,1.54,1.54,0,0,0,1,1,8,8,0,0,0,2.38.25h2.16a14.17,14.17,0,0,0,8.58-2.64,12.51,12.51,0,0,0,4.82-7.14c0-.09.09-.13.26-.13a.5.5,0,0,1,.28.1c.11.06.16.11.16.16q-.57,6.28-.57,10.48a1,1,0,0,1-.22.73,1,1,0,0,1-.73.22h-30c-.08,0-.12-.13-.12-.38s0-.38.12-.38a10,10,0,0,0,3-.32,2,2,0,0,0,1.27-1.24,8.59,8.59,0,0,0,.35-2.83v-29.4a8.24,8.24,0,0,0-.35-2.79,2.1,2.1,0,0,0-1.31-1.24,8.85,8.85,0,0,0-2.92-.35c-.08,0-.12-.13-.12-.38s0-.38.12-.38l3.24.06c2,.08,3.56.13,4.83.13s2.88,0,4.82-.13l3.24-.06c.13,0,.19.12.19.38s-.06.38-.19.38a8.89,8.89,0,0,0-2.92.35,2,2,0,0,0-1.27,1.27,9.28,9.28,0,0,0-.32,2.82Z" style="fill:#471010"/><path d="M524.31,143a.64.64,0,0,1,.35.1c.1.06.15.12.15.16a72,72,0,0,0-.63,9,1.12,1.12,0,0,1-.19.73,1,1,0,0,1-.76.22H495.16c-.13,0-.19-.13-.19-.38s.06-.38.19-.38a9.94,9.94,0,0,0,2.95-.32,1.94,1.94,0,0,0,1.24-1.24,9.42,9.42,0,0,0,.31-2.83v-29.4a9,9,0,0,0-.31-2.79,2,2,0,0,0-1.27-1.24,8.89,8.89,0,0,0-2.92-.35c-.13,0-.19-.13-.19-.38s.06-.38.19-.38h26.92c.43,0,.64.19.64.57l.12,8.44c0,.09-.11.15-.34.19s-.38,0-.42-.12a9.67,9.67,0,0,0-3.43-5.46,10.41,10.41,0,0,0-6.35-1.78h-1.9a4,4,0,0,0-2.8.82,3.32,3.32,0,0,0-.89,2.54v13H512a10.44,10.44,0,0,0,5.65-1.27,4,4,0,0,0,2-3.56c0-.13.11-.19.35-.19s.34.06.34.19l-.06,5.72.06,3.05c.09,1.44.13,2.58.13,3.43,0,.08-.13.12-.38.12s-.38,0-.38-.12a4.84,4.84,0,0,0-2-4.1,9.45,9.45,0,0,0-5.75-1.49h-5.21v14.35a4.42,4.42,0,0,0,.7,2.73,2.68,2.68,0,0,0,2.23.89h2.09a13.92,13.92,0,0,0,7.94-2,11.7,11.7,0,0,0,4.38-6.29C524.05,143.06,524.14,143,524.31,143Z" style="fill:#471010"/><path d="M558.88,124a13.17,13.17,0,0,0,2.89,3.12c1.15.89,2.69,2,4.64,3.23q3.18,2,5.08,3.56a14.2,14.2,0,0,1,3.24,3.72,9.5,9.5,0,0,1,1.33,5,10.09,10.09,0,0,1-1.77,5.87,11.76,11.76,0,0,1-4.93,4,16.76,16.76,0,0,1-7,1.43,24.52,24.52,0,0,1-6-.79,10.89,10.89,0,0,1-4.2-1.75,2.32,2.32,0,0,1-.47-.48,1.23,1.23,0,0,1-.16-.73l-.19-10.1v-.06c0-.17.1-.26.32-.28a.3.3,0,0,1,.38.22q1.91,3.87,3.33,6.29a16.66,16.66,0,0,0,3.62,4.25,7.52,7.52,0,0,0,5,1.84,6.36,6.36,0,0,0,4.19-1.36q1.65-1.37,1.65-4.67a9.41,9.41,0,0,0-1.24-4.89,13.37,13.37,0,0,0-3-3.56q-1.79-1.45-4.89-3.49a48,48,0,0,1-4.74-3.37,13.65,13.65,0,0,1-2.89-3.36,8.74,8.74,0,0,1-1.2-4.64,8.56,8.56,0,0,1,1.93-5.68,11.45,11.45,0,0,1,5-3.43,18.58,18.58,0,0,1,6.41-1.11,24.81,24.81,0,0,1,4.51.41,19.41,19.41,0,0,1,3.69,1,1.79,1.79,0,0,1,.76.54,1.28,1.28,0,0,1,.19.73v9.34c0,.13-.11.22-.32.29s-.34,0-.38-.1l-.51-1.21a28.59,28.59,0,0,0-3.71-6.79,7.06,7.06,0,0,0-5.94-2.8,6,6,0,0,0-4.16,1.46,5.46,5.46,0,0,0-1.62,4.26A7.21,7.21,0,0,0,558.88,124Z" style="fill:#471010"/><path d="M206,93a37.46,37.46,0,0,1-15.48-14.29,39,39,0,0,1-5.33-20.18,38.31,38.31,0,0,1,6.2-21.56,41.86,41.86,0,0,1,17-14.66,59.25,59.25,0,0,1,36.22-4.07,29.3,29.3,0,0,1,9.09,3.32,3.11,3.11,0,0,1,1.19,1.06,7.47,7.47,0,0,1,.31,1.82l1.51,14c0,.25-.24.4-.69.44s-.74-.07-.82-.32a25.08,25.08,0,0,0-10-13.91Q238,19.77,227.5,19.77q-15.78,0-24.44,9.15T194.42,54a46.57,46.57,0,0,0,5,21.74,36.71,36.71,0,0,0,33.4,20.37,33.91,33.91,0,0,0,9.9-1.13,8.39,8.39,0,0,0,5.14-4.38c1.08-2.18,1.63-5.39,1.63-9.65s-.28-7.38-.82-9.09A5.14,5.14,0,0,0,245,68.4c-1.88-.58-5.12-.88-9.72-.88-.5,0-.75-.33-.75-1a1.28,1.28,0,0,1,.19-.69.51.51,0,0,1,.44-.31q9.78.63,15.79.63t12.28-.38a.53.53,0,0,1,.44.31,1.1,1.1,0,0,1,.19.57q0,.87-.63.87c-2-.08-3.42.19-4.26.82s-1.38,1.9-1.63,3.82a90.56,90.56,0,0,0-.37,10,49.41,49.41,0,0,0,.44,8,23.15,23.15,0,0,1,.43,3,1.44,1.44,0,0,1-.25,1,2.67,2.67,0,0,1-1.12.5,120.36,120.36,0,0,1-26.7,3.51Q216.1,98.23,206,93Z" style="fill:#471010"/><path d="M306.15,92.78a37.33,37.33,0,0,1-14-14.79,42.79,42.79,0,0,1-4.95-20.37q0-12.9,6.52-22.12a40.88,40.88,0,0,1,16.73-13.85A50,50,0,0,1,331.28,17a39.09,39.09,0,0,1,20.93,5.57,37.89,37.89,0,0,1,13.85,14.73,41.15,41.15,0,0,1,4.82,19.43,38.43,38.43,0,0,1-6,20.93,43.23,43.23,0,0,1-16.11,15,45,45,0,0,1-21.87,5.51A39.57,39.57,0,0,1,306.15,92.78Zm40.48-1.32a28.44,28.44,0,0,0,10.78-12.15q3.94-8,3.95-19.05A47.89,47.89,0,0,0,357,39.33,34.12,34.12,0,0,0,344.62,25,33.5,33.5,0,0,0,326,19.9q-13.78,0-21.55,8.9t-7.77,24.44a51.67,51.67,0,0,0,4.38,21.49A36.8,36.8,0,0,0,313.35,90a30.32,30.32,0,0,0,17.93,5.58A29,29,0,0,0,346.63,91.46Z" style="fill:#471010"/><path d="M419.13,96.85c-1.17-.08-2.65-.16-4.45-.25s-3.78-.12-5.95-.12l-8.52.12q-2.25.14-6.27.13c-.17,0-.25-.25-.25-.75s.08-.76.25-.76a27.7,27.7,0,0,0,7-.62,4.45,4.45,0,0,0,3-2.45,14.43,14.43,0,0,0,.81-5.57v-58A15,15,0,0,0,404,23a4.42,4.42,0,0,0-3-2.44,25.25,25.25,0,0,0-6.95-.69c-.17,0-.25-.25-.25-.75s.08-.76.25-.76l6.26.13q5.26.26,8.4.25c3.18,0,6.31-.12,9.4-.38,3.68-.16,6.22-.25,7.65-.25a50.94,50.94,0,0,1,23.06,5,38.62,38.62,0,0,1,15.6,13.66A35,35,0,0,1,470,56.24a40.41,40.41,0,0,1-5.7,21.5,38.72,38.72,0,0,1-15.48,14.41,45.49,45.49,0,0,1-21.31,5.08Q423.9,97.23,419.13,96.85Zm24.95-5.7a29.16,29.16,0,0,0,12.09-12.41q4.32-8.2,4.32-19.74a46.35,46.35,0,0,0-4.13-19.8,33.64,33.64,0,0,0-11.78-14A31,31,0,0,0,426.9,20a42.17,42.17,0,0,0-8.33.63,6.84,6.84,0,0,0-4.32,2.51,9.49,9.49,0,0,0-1.38,5.64V85.2a13.4,13.4,0,0,0,1.06,5.89,6.77,6.77,0,0,0,4,3.19,25.55,25.55,0,0,0,8.34,1.07A36.89,36.89,0,0,0,444.08,91.15Z" style="fill:#471010"/><path d="M503.23,20.21q2.13,2.82,2.13,8.09a19.9,19.9,0,0,1-2.25,9.33,34.21,34.21,0,0,1-6.65,8.59.51.51,0,0,1-.37.12.74.74,0,0,1-.63-.37q-.25-.37,0-.63a20.45,20.45,0,0,0,6.14-14.79,8.5,8.5,0,0,0-1.25-5.14,4.15,4.15,0,0,1-3.89,1.88,4.71,4.71,0,0,1-3.57-1.38,4.82,4.82,0,0,1-1.31-3.5q0-5,5.76-5A7,7,0,0,1,503.23,20.21Z" style="fill:#471010"/><path d="M541.33,41.58a22.78,22.78,0,0,0,5.77,6.08q3.38,2.45,9.52,6.2,6.51,3.89,10.15,6.52A24,24,0,0,1,573,67.09a17.83,17.83,0,0,1,2.57,9.71A20,20,0,0,1,563.7,95.41a31.79,31.79,0,0,1-14,2.82,36.12,36.12,0,0,1-17.67-4.39,1.83,1.83,0,0,1-.82-.87,7.35,7.35,0,0,1-.31-1.51l-1.63-17c-.09-.34.1-.54.56-.63s.73,0,.82.38a36,36,0,0,0,7.45,15.54,18,18,0,0,0,14.48,6.52,16.43,16.43,0,0,0,10.59-3.45q4.32-3.45,4.33-11A18.47,18.47,0,0,0,565,72a23.93,23.93,0,0,0-6.08-6.83,106.71,106.71,0,0,0-9.71-6.33,112.5,112.5,0,0,1-9.47-6.27A22.85,22.85,0,0,1,533.94,46a18.07,18.07,0,0,1-2.39-9.4,17.39,17.39,0,0,1,3.33-10.72,20.11,20.11,0,0,1,8.64-6.64A29.57,29.57,0,0,1,554.87,17a38.14,38.14,0,0,1,14.66,3c1.25.42,1.88,1.13,1.88,2.13l.88,14.42c0,.33-.21.5-.63.5a.67.67,0,0,1-.75-.5,25.73,25.73,0,0,0-5.39-12.1q-4.39-5.56-12.66-5.57-7,0-10.46,4.07A15.08,15.08,0,0,0,539,33.06,15.16,15.16,0,0,0,541.33,41.58Z" style="fill:#471010"/><path d="M5.63,140.56V147a17,17,0,0,0,17,17H102.3c11.89,0,20.51-9.48,20.51-22.54V38.06a0,0,0,0,1,0,0h23.38a3,3,0,0,0,3-3V25.53a16.8,16.8,0,0,0-16.8-16.79H36.89A19.54,19.54,0,0,0,17.35,28.28V137.63H8.56A2.93,2.93,0,0,0,5.63,140.56Z" style="fill:#d8b587"/><path d="M122.81,32.17V26.31c0-6.85,3.79-11.41,9.67-11.69A11,11,0,0,1,143.32,25.5v6.67Z" style="fill:#fef1d9"/><path d="M90.59,140.56a2.94,2.94,0,0,0-2.93-2.93H23.24l0,0V28.28A13.67,13.67,0,0,1,36.89,14.6h83.82s0,0,0,0A18.71,18.71,0,0,0,117,26.31V141.46c0,9.52-5.67,16.27-13.88,16.66h0A13.15,13.15,0,0,1,90.59,145Z" style="fill:#fef1d9"/><path d="M11.49,143.52a0,0,0,0,1,0,0H84.73V145A19,19,0,0,0,90,158.09a0,0,0,0,1,0,0H22.59A11.1,11.1,0,0,1,11.49,147Z" style="fill:#fef1d9"/><path d="M102.16,42.86H59.36c-2.59,0-4.7-1.79-4.7-4h0c0-1.82,1.76-3.31,3.91-3.31h42.79c2.59,0,4.7,1.79,4.7,4h0C106.06,41.37,104.31,42.86,102.16,42.86Z" style="fill:#7f4d2a"/><path d="M102.16,61.07h-63c-2.58,0-4.7-1.78-4.7-4h0c0-1.81,1.76-3.29,3.9-3.29h63c2.59,0,4.7,1.78,4.7,4h0C106.06,59.59,104.31,61.07,102.16,61.07Z" style="fill:#7f4d2a"/><path d="M102.16,79.29h-63c-2.59,0-4.7-1.78-4.7-4h0c0-1.81,1.76-3.29,3.91-3.29h63c2.59,0,4.7,1.78,4.7,4h0C106.06,77.81,104.31,79.29,102.16,79.29Z" style="fill:#7f4d2a"/><path d="M102.16,97.51h-63c-2.58,0-4.7-1.78-4.7-4h0c0-1.81,1.76-3.29,3.91-3.29h63c2.59,0,4.7,1.78,4.7,4h0C106.06,96,104.31,97.51,102.16,97.51Z" style="fill:#7f4d2a"/><path d="M102.16,115.72h-63c-2.59,0-4.7-1.77-4.7-3.94h0c0-1.8,1.76-3.27,3.91-3.27h63c2.59,0,4.7,1.77,4.7,3.94h0C106.06,114.25,104.31,115.72,102.16,115.72Z" style="fill:#7f4d2a"/><circle cx="104.09" cy="146.24" r="6.83" style="fill:#471010"/></svg>