<?xml version="1.0" encoding="utf-8"?>
<!-- Generator: Adobe Illustrator 24.2.0, SVG Export Plug-In . SVG Version: 6.00 Build 0)  -->
<svg version="1.1" id="a90b5256-b423-42d1-825d-5fdc0dc55c5f"
	 xmlns="http://www.w3.org/2000/svg" xmlns:xlink="http://www.w3.org/1999/xlink" x="0px" y="0px" viewBox="0 0 883 612.1"
	 style="enable-background:new 0 0 883 612.1;" xml:space="preserve">
<style type="text/css">
	.st0{fill:#E6E6E6;}
	.st1{fill:#FFFFFF;}
	.st2{fill:#A8A8A8;}
	.st3{fill:#A0616A;}
	.st4{fill:#636363;}
	.st5{fill:#565656;}
	.st6{opacity:0.2;enable-background:new    ;}
	.st7{fill:#2F2E41;}
	.st8{fill:#3F3D56;}
	.st9{fill:#F2F2F2;}
	.st10{fill:#B3B3B3;}
</style>
<path class="st0" d="M102.9,530.3c0,0-112.3-51.7-72.9-87.6S102.9,530.3,102.9,530.3z"/>
<path class="st0" d="M100.9,542.4c0,0-51.6-169.6,24.4-161.5S100.9,542.4,100.9,542.4z"/>
<path class="st0" d="M63.3,527.3l2.2,28.4l0,0.5c0,4.4,0.2,8.9,0.7,13.3c2.9,28.9,15.6,42.1,30.3,42.1s26.9-13.2,29.8-42.1
	c0.4-4.4,0.7-8.8,0.7-13.3l0-0.4l0-0.1l2.2-28.4H63.3z"/>
<path class="st1" d="M127,555.7L127,555.7l0,0.5c0,4.4-0.2,8.9-0.7,13.3H66.2c-0.4-4.4-0.7-8.8-0.7-13.3l0-0.5H127z"/>
<path class="st0" d="M835.4,547.7c0,0-86.9-40-56.4-67.8S835.4,547.7,835.4,547.7z"/>
<path class="st0" d="M833.9,557c0,0-40-131.3,18.9-125S833.9,557,833.9,557z"/>
<path class="st0" d="M804.7,545.4l1.7,22l0,0.4c0,3.4,0.2,6.9,0.5,10.3c2.3,22.4,12.1,32.6,23.5,32.6s20.8-10.2,23.1-32.6
	c0.3-3.4,0.5-6.8,0.5-10.3l0-0.3l0-0.1l1.7-22H804.7z"/>
<path class="st1" d="M854.1,567.3L854.1,567.3l0,0.4c0,3.4-0.2,6.9-0.5,10.3H807c-0.3-3.4-0.5-6.8-0.5-10.3l0-0.4H854.1z"/>
<path class="st0" d="M292.7,182.6V144h-6v38.6c-4.1,1.7-6.1,6.3-4.4,10.4s6.3,6.1,10.4,4.4c4.1-1.7,6.1-6.3,4.4-10.4
	C296.3,185,294.7,183.4,292.7,182.6z"/>
<path class="st0" d="M306.7,572h-41V74h-16v498h-41c-20.4,0-37,16.6-37,37v0v0h172v0C343.7,588.6,327.2,572,306.7,572
	C306.7,572,306.7,572,306.7,572z"/>
<path class="st2" d="M171.8,148h171.8L333.1,16.7c-0.8-9.4-8.6-16.6-18-16.7H200.4c-9.4,0-17.2,7.3-18,16.7L171.8,148z"/>
<path class="st3" d="M411.1,378.5L411.1,378.5c-6.7-1.1-13.1,3.4-14.2,10.2c0,0.1,0,0.1,0,0.2l-4.8,31.7l16.5,4.4l12.1-29.6
	c2.6-6.3-0.5-13.5-6.8-16.1C412.8,378.9,412,378.7,411.1,378.5z"/>
<path class="st2" d="M410.7,420.5c9.1,36.3,5.2,69.5-28.8,95.6c-40.8-11.2-67.9-38.4-84.5-77.8c-4.2-10,0.5-21.6,10.5-25.8
	c0.3-0.1,0.5-0.2,0.8-0.3l0,0c7.7-2.8,16.3-0.6,21.7,5.6l40,46.2l18.8-46.6L410.7,420.5z"/>
<path class="st0" d="M619.8,611c-37.3-2-60.4-14.8-66-41l6-11l68.7,31.3c4.8,2.2,7,7.9,4.8,12.7c-1.1,2.3-3,4.2-5.4,5L619.8,611z"/>
<path class="st0" d="M591,611.3c-19.4-0.6-38-0.4-55.6,0.8c-6.4,0.4-12-4.4-12.5-10.8l-1.1-13.2l-15-24l13-13
	c21.8,21.8,45.8,40,74.3,50.9c2.3,1.6,2.9,4.8,1.3,7.1C594.4,610.5,592.7,611.3,591,611.3z"/>
<polygon class="st4" points="507.8,569 473.8,517 481.8,502 526.8,549 "/>
<path class="st5" d="M485.8,517c-24.7,44.2-49,74-81,90c-39.3,13-68.1-4.2-90.5-39.5l65-43l9.5,9.5l86.1-65.5
	c4.4-4.1,11.3-4,15.5,0.3l73.4,90.2l-9,15L485.8,517z"/>
<circle class="st3" cx="311.8" cy="369" r="34"/>
<path class="st3" d="M320.8,432l-38-13c5.6-8.9,8.1-19.5,7-30h31C319,404.3,318.8,418.7,320.8,432z"/>
<path class="st2" d="M401.8,523c-5.7,2.3-6.1,9.9-11.5,12.5c-26,12.5-53.6,22.6-72.5,40.5c-44.2-30-85.2-123.2-32-164
	c18.1,10.6,34.4,18.2,34,0L401.8,523z"/>
<path class="st6" d="M378.8,483l-18.5-6.5L323.8,505l-16.4-58.9c-1.1-4.1-3-2-5.6,0.8c-8-7.4-20.4-6.9-27.8,1.1
	c-3.2,3.4-5,7.8-5.2,12.5c-1.9,42.7,10.9,78.9,43,106.5c41.9-9,59.7-37.3,67-74l-2-1.3C377.5,488.8,378.2,486,378.8,483z"/>
<path class="st7" d="M316.4,324.3c11.2,2.6,24,6.2,24.7,9.6c11.5,2.9,20.2,9.9,22,20.5c0.6,3.5-1.8,6.7-5.3,7.3
	c-0.4,0.1-0.7,0.1-1.1,0.1c-6.3-0.1-15.7-0.7-21.9-3.3c-18.1,11.6-21.1,41.9-13.2,62.5l-12.4-1.1l-12.8-37.6l-3.3,36.1l-28.3-3.7
	l3.6-46.1c1.1-10.9,4.8-21.3,10.8-30.4c0.6-0.9,1.3-1.8,2-2.6C289.9,325.5,303.5,321.3,316.4,324.3z"/>
<polygon class="st8" points="380.3,438.4 411.4,475 458.1,419.9 426.5,381.7 "/>
<path class="st9" d="M450.1,421.2l-37-30.3c2.1-5,12.2-3.4,12.2-3.4l29,29.4c1,1,1.9,2.2,2.6,3.4l0,0L450.1,421.2z"/>
<path class="st8" d="M451.8,419.1l-42.1-32.8L363,456.9l43.9,29.6c4.2,1.7,8.4-1.3,8.4-1.3l42.9-65.6L451.8,419.1z"/>
<rect x="427.9" y="389.9" transform="matrix(0.5835 -0.8121 0.8121 0.5835 -151.7506 517.0266)" class="st2" width="0.7" height="33.1"/>
<rect x="392.8" y="449.7" transform="matrix(0.5517 -0.8341 0.8341 0.5517 -184.8437 556.1062)" class="st2" width="64" height="0.7"/>
<rect x="388.4" y="450.1" transform="matrix(0.5926 -0.8055 0.8055 0.5926 -218.5091 503.6749)" class="st2" width="0.7" height="35.5"/>
<rect x="359.8" y="423.6" transform="matrix(0.5713 -0.8208 0.8208 0.5713 -179.9392 503.3704)" class="st2" width="64" height="0.7"/>
<rect x="437.4" y="380" transform="matrix(0.6762 -0.7367 0.7367 0.6762 -154.8532 452.8025)" class="st10" width="0.4" height="45.2"/>
<rect x="435.4" y="379.7" transform="matrix(0.6618 -0.7497 0.7497 0.6618 -154.7143 462.8377)" class="st10" width="0.4" height="46.4"/>
<rect x="433.9" y="379.7" transform="matrix(0.6403 -0.7681 0.7681 0.6403 -153.5579 478.5155)" class="st10" width="0.4" height="47"/>
<path class="st3" d="M397.1,449.2L397.1,449.2c-5.6-3.9-13.3-2.5-17.2,3.1c0,0-0.1,0.1-0.1,0.1l-18,26.6l13,11l23.6-21.6
	c5-4.6,5.4-12.4,0.8-17.5C398.5,450.3,397.8,449.7,397.1,449.2z"/>
<path class="st2" d="M378.8,487c-7.3,36.7-25.1,65-67,74c-32-27.6-44.9-63.8-43-106.5c0.5-10.9,9.7-19.3,20.6-18.8
	c0.3,0,0.6,0,0.9,0.1l0,0c8.1,0.7,15,6.4,17.2,14.3l16.4,58.9l36.9-34L378.8,487z"/>
<polygon class="st8" points="882.6,612.1 0,612.1 0,610 883,610 "/>
<path class="st0" d="M461.3,91.5c-1.1,0-2,0.9-2,2v156c0,1.1,0.9,2,2,2h130c1.1,0,2-0.9,2-2v-156c0-1.1-0.9-2-2-2L461.3,91.5z"/>
<path class="st1" d="M474.8,236h103V107h-103V236z"/>
<path class="st0" d="M677.7,132.5c-0.7,0-1.2,0.5-1.2,1.2v77.6c0,0.7,0.5,1.2,1.2,1.2h93.1c0.7,0,1.2-0.5,1.2-1.2v-77.6
	c0-0.7-0.5-1.2-1.2-1.2L677.7,132.5z"/>
<path class="st1" d="M685.8,141.8v61.5h77v-61.5H685.8z"/>
<path class="st0" d="M544.5,102.5h-36.4c-2.8,0-5-2.2-5-5c0-0.9,0.2-1.8,0.7-2.5L522,63.5c0,0,0-0.1,0-0.1c0.8-1.4,2.2-2.3,3.8-2.4
	l0,0c0.2,0,0.3,0,0.5,0c1.8,0,3.4,0.9,4.3,2.5L548.8,95c1.4,2.4,0.6,5.4-1.8,6.8C546.2,102.3,545.4,102.5,544.5,102.5L544.5,102.5z
	 M507.1,97.5c0,0.2,0,0.4,0.1,0.5c0.2,0.3,0.5,0.5,0.9,0.5h36.4c0.4,0,0.7-0.2,0.9-0.5c0.1-0.2,0.1-0.3,0.1-0.5c0-0.2,0-0.3-0.1-0.5
	l-18.2-31.5c-0.3-0.5-0.9-0.6-1.4-0.4c-0.2,0.1-0.3,0.2-0.4,0.4L507.2,97C507.1,97.2,507.1,97.3,507.1,97.5z"/>
<circle class="st0" cx="526.3" cy="67.5" r="3"/>
<path class="st0" d="M734.1,135h-19.7c-1.5,0-2.7-1.2-2.7-2.7c0-0.5,0.1-1,0.4-1.4l9.9-17.1l0,0c0.4-0.7,1.2-1.2,2.1-1.3l0,0
	c0.1,0,0.2,0,0.3,0c1,0,1.9,0.5,2.3,1.4l9.9,17.1c0.7,1.3,0.3,3-1,3.7C735.1,134.9,734.6,135,734.1,135L734.1,135z M713.9,132.3
	c0,0.1,0,0.2,0.1,0.3c0.1,0.2,0.3,0.3,0.5,0.3h19.7c0.2,0,0.4-0.1,0.5-0.3c0-0.1,0.1-0.2,0.1-0.3c0-0.1,0-0.2-0.1-0.3l-9.9-17.1
	c-0.1-0.3-0.5-0.3-0.7-0.2c-0.1,0-0.2,0.1-0.2,0.2L714,132C713.9,132.1,713.9,132.2,713.9,132.3L713.9,132.3z"/>
<circle class="st0" cx="724.3" cy="116" r="1.6"/>
<path class="st0" d="M476,186.9c2.9-6.7,8.4-11.8,15.3-14.3c7.1-2.7,15.1-2.3,21.8,1.4c7.8,4.1,14,10.7,22,14.6
	c7.7,3.8,16.2,5.8,24.8,5.8c9.7,0.1,19.3-2.4,27.8-7.2c0.7-0.4,0.9-1.4,0.5-2.1c-0.4-0.7-1.3-0.9-2-0.5c-15.6,8.7-34.5,9.1-50.4,0.9
	c-8-4.2-14.3-10.9-22.4-14.8c-6.9-3.4-15-3.8-22.2-1.2c-8.1,2.7-14.7,8.8-18,16.7C472.3,187.9,475.2,188.7,476,186.9L476,186.9z"/>
<path class="st0" d="M473.6,214.9c16.6-3.7,33.9-3.7,50.5,0.2c14.8,3.4,30,9.6,45.2,5c6.8-2.1,13-6.2,16.5-12.5
	c0.9-1.7-1.7-3.2-2.6-1.5c-6.6,11.9-22,13.9-34.2,12c-8.1-1.3-16-3.9-24-5.8c-17.2-4-35.1-4.1-52.4-0.2
	C470.9,212.5,471.7,215.4,473.6,214.9L473.6,214.9z"/>
<path class="st0" d="M472.5,147.9c16-2.7,32.3-2.1,48,1.7c14.7,3.6,29.1,11.8,44.6,10.4c7.2-0.7,14.3-3.3,19.2-8.8
	c1.3-1.4-0.8-3.6-2.1-2.1c-4.2,4.7-10.3,7.2-16.5,7.9c-7.2,0.8-14.2-0.7-21.1-2.8c-7.6-2.3-14.9-5.3-22.6-7.2
	c-16.5-4.1-33.6-4.8-50.3-1.9C469.8,145.3,470.6,148.2,472.5,147.9L472.5,147.9z"/>
<path class="st0" d="M699.2,140.7c6.9,7.1,11.7,15.9,13.7,25.6c3.2,15.6-0.9,31.7-11.2,43.9c-1.2,1.5,0.9,3.6,2.1,2.1
	c6.9-8.1,11.3-18.1,12.7-28.7c2-16.5-3.6-33.1-15.3-45C700,137.2,697.8,139.4,699.2,140.7L699.2,140.7z"/>
<path class="st0" d="M744.2,134.3c-9.2,6.7-14.3,17.6-15.1,28.9c-0.8,11.7,3.7,23,10.9,32.1c4.2,5.2,9.2,9.8,14.8,13.4
	c1.6,1.1,3.1-1.5,1.5-2.6c-9.2-6-17-14.5-21.2-24.8c-4.1-9.8-4.1-20.9-0.1-30.7c2.2-5.4,5.9-10.2,10.6-13.7
	C747.3,135.8,745.8,133.2,744.2,134.3L744.2,134.3z"/>
<circle class="st0" cx="533.3" cy="150.5" r="14"/>
</svg>
