<svg xmlns="http://www.w3.org/2000/svg" xmlns:xlink="http://www.w3.org/1999/xlink"><symbol id="album" viewBox="0 0 24 24"><path fill-rule="evenodd" clip-rule="evenodd" d="M2 19a3 3 0 003 3h14a3 3 0 003-3V5a3 3 0 00-3-3H5a3 3 0 00-3 3v14zm18 0a1 1 0 01-1 1H5a1 1 0 01-1-1V5a1 1 0 011-1h5v8.011h2.395L14 9.864l1.605 2.147H18V4h1a1 1 0 011 1v14zM16 4h-4v5.336l2-2.676 2 2.676V4z" fill="currentColor"/></symbol><symbol id="chevron-left" viewBox="0 0 24 24"><path d="M16.243 6.343L14.828 4.93 7.758 12l7.07 7.071 1.415-1.414L10.586 12l5.657-5.657z" fill="currentColor"/></symbol><symbol id="chevron-right" viewBox="0 0 24 24"><path d="M10.586 6.343L12 4.93 19.071 12 12 19.071l-1.414-1.414L16.243 12l-5.657-5.657z" fill="currentColor"/></symbol><symbol id="config" viewBox="0 0 16 16"><path d="M15.95 7.114a.52.52 0 00-.515-.393 1.76 1.76 0 01-1.21-3.074.446.446 0 00.049-.607 8.086 8.086 0 00-1.269-1.28.447.447 0 00-.61.05 1.84 1.84 0 01-1.995.449A1.783 1.783 0 019.321.522a.447.447 0 00-.393-.469 8.025 8.025 0 00-1.8 0 .447.447 0 00-.4.456 1.776 1.776 0 01-1.1 1.706 1.857 1.857 0 01-1.982-.45.445.445 0 00-.6-.049 7.947 7.947 0 00-1.293 1.28.45.45 0 00.047.604 1.772 1.772 0 01.453 2A1.85 1.85 0 01.514 6.676a.435.435 0 00-.461.393 7.785 7.785 0 000 1.818.515.515 0 00.522.394 1.759 1.759 0 011.645 1.1 1.779 1.779 0 01-.446 1.977.445.445 0 00-.05.605 7.9 7.9 0 001.266 1.28.447.447 0 00.61-.043 1.848 1.848 0 012-.453 1.771 1.771 0 011.08 1.736.449.449 0 00.394.469 8.116 8.116 0 00.92.048 7.377 7.377 0 00.879-.05.446.446 0 00.4-.459 1.775 1.775 0 011.093-1.706 1.85 1.85 0 011.977.456.446.446 0 00.6.05 8.069 8.069 0 001.293-1.28.447.447 0 00-.046-.61 1.76 1.76 0 011.191-3.08h.1a.448.448 0 00.469-.394 8.263 8.263 0 000-1.813zm-7.938 3.57a2.668 2.668 0 112.668-2.667 2.67 2.67 0 01-2.668 2.667z"/></symbol><symbol id="format-center" viewBox="0 0 24 24"><path d="M4 5a1 1 0 000 2h16a1 1 0 100-2H4zM4 13a1 1 0 100 2h16a1 1 0 100-2H4zM6 10a1 1 0 011-1h10a1 1 0 110 2H7a1 1 0 01-1-1zM7 17a1 1 0 100 2h10a1 1 0 100-2H7z" fill="currentColor"/></symbol><symbol id="format-justify" viewBox="0 0 24 24"><path d="M4 5a1 1 0 000 2h16a1 1 0 100-2H4zM4 9a1 1 0 000 2h16a1 1 0 100-2H4zM3 14a1 1 0 011-1h16a1 1 0 110 2H4a1 1 0 01-1-1zM4 17a1 1 0 100 2h16a1 1 0 100-2H4z" fill="currentColor"/></symbol><symbol id="format-left" viewBox="0 0 24 24"><path d="M4 5a1 1 0 000 2h16a1 1 0 100-2H4zM4 9a1 1 0 000 2h8a1 1 0 100-2H4zM3 14a1 1 0 011-1h16a1 1 0 110 2H4a1 1 0 01-1-1zM4 17a1 1 0 100 2h8a1 1 0 100-2H4z" fill="currentColor"/></symbol><symbol id="hearts" viewBox="0 0 24 24"><path d="M3.1 12.9C.7 10.5.7 6.5 3.1 4.1c2.4-2.4 6.4-2.4 8.8 0l.1.1.1-.1c2.4-2.4 6.4-2.4 8.8 0 2.4 2.4 2.4 6.4 0 8.8l-8.8 8.8H12l-.1.1-8.8-8.9z" fill="currentColor"/></symbol><symbol id="night" viewBox="0 0 24 24"><path d="M19.4 14.7C13 17.2 6.5 10.7 8.9 4.3c.3-.7-.5-1.4-1.2-1.2C-2.7 7 0 22.2 11.1 22.4c4.2 0 7.9-2.6 9.3-6.6.4-.6-.4-1.3-1-1.1zm-8.2 6C3.1 20.7 0 10 6.7 5.7 5.7 12.1 11.6 18 18 16.9c-1.5 2.3-4 3.8-6.8 3.8zM22.7 7.5c-.3-.8-1.2-.4-1.8-.2.4-2-1.9-2-1.5 0-2-1-2.6 1.1-.4 1.4-1.7 1.8.1 3.3 1.2 1 1.1 2.3 2.9.8 1.2-1 .5-.2 1.6-.4 1.3-1.2z"/><circle cx="13.2" cy="5.7" r=".8"/><circle cx="18" cy="2.2" r=".8"/></symbol><symbol id="search" viewBox="0 0 512 512"><path d="M464 428L339.92 303.9a160.48 160.48 0 0030.72-94.58C370.64 120.37 298.27 48 209.32 48S48 120.37 48 209.32s72.37 161.32 161.32 161.32a160.48 160.48 0 0094.58-30.72L428 464zM209.32 319.69a110.38 110.38 0 11110.37-110.37 110.5 110.5 0 01-110.37 110.37z"/></symbol><symbol id="sun" viewBox="0 0 24 24"><path d="M12 4.8c-.3 0-.6-.3-.6-.6V1.4c0-.3.3-.6.6-.6s.6.3.6.6v2.9c0 .2-.3.5-.6.5zM12 23.2c-.3 0-.6-.3-.6-.6v-2.9c0-.3.3-.6.6-.6s.6.3.6.6v2.9c0 .4-.3.6-.6.6zM4.2 12.6H1.4c-.3 0-.6-.3-.6-.6s.3-.6.6-.6h2.9c.3 0 .6.3.6.6s-.4.6-.7.6zM22.6 12.6h-2.9c-.3 0-.6-.3-.6-.6s.3-.6.6-.6h2.9c.3 0 .6.3.6.6s-.2.6-.6.6zM6.5 7.1c-.1 0-.3-.1-.4-.2L5 5.8c-.3-.2-.3-.6 0-.8.2-.2.6-.2.8 0l1.1 1.1c.2.2.2.6 0 .8-.1.1-.2.2-.4.2zM19 19.6c-.2 0-.3-.1-.4-.2l-1.5-1.5c-.2-.2-.2-.6 0-.8.2-.2.6-.2.8 0l1.5 1.5c.2.2.2.6 0 .8-.1.1-.2.2-.4.2zM5.4 19.2c-.3 0-.6-.3-.6-.6 0-.2.1-.3.2-.4l1.1-1.1c.2-.2.6-.2.8 0 .2.2.2.6 0 .8L5.8 19c-.1.1-.3.2-.4.2zM17.5 7.1c-.3 0-.6-.3-.6-.6 0-.2.1-.3.2-.4L18.2 5c.2-.2.6-.2.8 0 .2.2.2.6 0 .8l-1.1 1.1c-.1.1-.3.2-.4.2z"/><circle cx="12" cy="12" r="5.6"/></symbol><symbol id="translate" viewBox="0 0 16 16"><path d="M15.942 14.331l-3.214-7.786a.786.786 0 00-1.453 0l-3.214 7.786a.786.786 0 001.453.6l.654-1.586h3.667l.655 1.585a.786.786 0 001.472-.55.744.744 0 00-.02-.05zm-5.125-2.558L12 8.9l1.185 2.869zM8.423 11.092a.786.786 0 00-.172-1.1 10.229 10.229 0 01-1.3-1.24A18.416 18.416 0 009.49 3.631h1.153a.786.786 0 000-1.572H6.5v-.714a.786.786 0 10-1.572 0v.714H.786a.786.786 0 100 1.572h7.045A17.057 17.057 0 015.91 7.5a13.488 13.488 0 01-1.542-2.46.786.786 0 00-1.449.607 15.013 15.013 0 001.888 3l.1.125a14.6 14.6 0 01-3.357 2.883.786.786 0 10.721 1.4l.031-.017a15.4 15.4 0 003.63-3.057 10.8 10.8 0 001.39 1.289.786.786 0 001.1-.172z"/></symbol><symbol id="tune" viewBox="0 0 24 24"><path d="M0 0h24v24H0z" fill="none"/><path d="M3 17v2h6v-2zM3 5v2h10V5zm10 16v-2h8v-2h-8v-2h-2v6zM7 9v2H3v2h4v2h2V9zm14 4v-2H11v2zm-6-4h2V7h4V5h-4V3h-2z"/></symbol></svg>