<svg xmlns="http://www.w3.org/2000/svg" xmlns:xlink="http://www.w3.org/1999/xlink"><symbol id="album" viewBox="0 0 24 24"><path fill-rule="evenodd" clip-rule="evenodd" d="M2 19a3 3 0 003 3h14a3 3 0 003-3V5a3 3 0 00-3-3H5a3 3 0 00-3 3v14zm18 0a1 1 0 01-1 1H5a1 1 0 01-1-1V5a1 1 0 011-1h5v8.011h2.395L14 9.864l1.605 2.147H18V4h1a1 1 0 011 1v14zM16 4h-4v5.336l2-2.676 2 2.676V4z" fill="currentColor"/></symbol><symbol id="chevron-left" viewBox="0 0 24 24"><path d="M16.243 6.343L14.828 4.93 7.758 12l7.07 7.071 1.415-1.414L10.586 12l5.657-5.657z" fill="currentColor"/></symbol><symbol id="chevron-right" viewBox="0 0 24 24"><path d="M10.586 6.343L12 4.93 19.071 12 12 19.071l-1.414-1.414L16.243 12l-5.657-5.657z" fill="currentColor"/></symbol><symbol id="hearts" viewBox="0 0 24 24"><path d="M3.1 12.9C.7 10.5.7 6.5 3.1 4.1c2.4-2.4 6.4-2.4 8.8 0l.1.1.1-.1c2.4-2.4 6.4-2.4 8.8 0 2.4 2.4 2.4 6.4 0 8.8l-8.8 8.8H12l-.1.1-8.8-8.9z" fill="currentColor"/></symbol><symbol id="options" viewBox="0 0 24 24"><path fill-rule="evenodd" clip-rule="evenodd" d="M7 3a4.002 4.002 0 013.874 3H19v2h-8.126A4.002 4.002 0 013 7a4 4 0 014-4zm0 6a2 2 0 100-4 2 2 0 000 4zM17 20a4.002 4.002 0 01-3.874-3H5v-2h8.126A4.002 4.002 0 0121 16a4 4 0 01-4 4zm0-2a2 2 0 100-4 2 2 0 000 4z" fill="currentColor"/></symbol><symbol id="search" viewBox="0 0 24 24"><path fill-rule="evenodd" clip-rule="evenodd" d="M18.319 14.433A8.001 8.001 0 006.343 3.868a8 8 0 0010.564 11.976l.043.045 4.242 4.243a1 1 0 101.415-1.415l-4.243-4.242a1.116 1.116 0 00-.045-.042zm-2.076-9.15a6 6 0 11-8.485 8.485 6 6 0 018.485-8.485z" fill="currentColor"/></symbol></svg>