<svg xmlns="http://www.w3.org/2000/svg" xmlns:xlink="http://www.w3.org/1999/xlink"><symbol id="album" viewBox="0 0 24 24"><path fill-rule="evenodd" clip-rule="evenodd" d="M2 19a3 3 0 003 3h14a3 3 0 003-3V5a3 3 0 00-3-3H5a3 3 0 00-3 3v14zm18 0a1 1 0 01-1 1H5a1 1 0 01-1-1V5a1 1 0 011-1h5v8.011h2.395L14 9.864l1.605 2.147H18V4h1a1 1 0 011 1v14zM16 4h-4v5.336l2-2.676 2 2.676V4z" fill="currentColor"/></symbol><symbol id="chevron-left" viewBox="0 0 24 24"><path d="M16.243 6.343L14.828 4.93 7.758 12l7.07 7.071 1.415-1.414L10.586 12l5.657-5.657z" fill="currentColor"/></symbol><symbol id="chevron-right" viewBox="0 0 24 24"><path d="M10.586 6.343L12 4.93 19.071 12 12 19.071l-1.414-1.414L16.243 12l-5.657-5.657z" fill="currentColor"/></symbol><symbol id="format-center" viewBox="0 0 24 24"><path d="M4 5a1 1 0 000 2h16a1 1 0 100-2H4zM4 13a1 1 0 100 2h16a1 1 0 100-2H4zM6 10a1 1 0 011-1h10a1 1 0 110 2H7a1 1 0 01-1-1zM7 17a1 1 0 100 2h10a1 1 0 100-2H7z" fill="currentColor"/></symbol><symbol id="format-justify" viewBox="0 0 24 24"><path d="M4 5a1 1 0 000 2h16a1 1 0 100-2H4zM4 9a1 1 0 000 2h16a1 1 0 100-2H4zM3 14a1 1 0 011-1h16a1 1 0 110 2H4a1 1 0 01-1-1zM4 17a1 1 0 100 2h16a1 1 0 100-2H4z" fill="currentColor"/></symbol><symbol id="format-left" viewBox="0 0 24 24"><path d="M4 5a1 1 0 000 2h16a1 1 0 100-2H4zM4 9a1 1 0 000 2h8a1 1 0 100-2H4zM3 14a1 1 0 011-1h16a1 1 0 110 2H4a1 1 0 01-1-1zM4 17a1 1 0 100 2h8a1 1 0 100-2H4z" fill="currentColor"/></symbol><symbol id="hearts" viewBox="0 0 24 24"><path d="M3.1 12.9C.7 10.5.7 6.5 3.1 4.1c2.4-2.4 6.4-2.4 8.8 0l.1.1.1-.1c2.4-2.4 6.4-2.4 8.8 0 2.4 2.4 2.4 6.4 0 8.8l-8.8 8.8H12l-.1.1-8.8-8.9z" fill="currentColor"/></symbol><symbol id="night" viewBox="0 0 24 24"><path d="M19.4 14.7C13 17.2 6.5 10.7 8.9 4.3c.3-.7-.5-1.4-1.2-1.2C-2.7 7 0 22.2 11.1 22.4c4.2 0 7.9-2.6 9.3-6.6.4-.6-.4-1.3-1-1.1zm-8.2 6C3.1 20.7 0 10 6.7 5.7 5.7 12.1 11.6 18 18 16.9c-1.5 2.3-4 3.8-6.8 3.8zM22.7 7.5c-.3-.8-1.2-.4-1.8-.2.4-2-1.9-2-1.5 0-2-1-2.6 1.1-.4 1.4-1.7 1.8.1 3.3 1.2 1 1.1 2.3 2.9.8 1.2-1 .5-.2 1.6-.4 1.3-1.2z"/><circle cx="13.2" cy="5.7" r=".8"/><circle cx="18" cy="2.2" r=".8"/></symbol><symbol id="options" viewBox="0 0 24 24"><path fill-rule="evenodd" clip-rule="evenodd" d="M7 3a4.002 4.002 0 013.874 3H19v2h-8.126A4.002 4.002 0 013 7a4 4 0 014-4zm0 6a2 2 0 100-4 2 2 0 000 4zM17 20a4.002 4.002 0 01-3.874-3H5v-2h8.126A4.002 4.002 0 0121 16a4 4 0 01-4 4zm0-2a2 2 0 100-4 2 2 0 000 4z" fill="currentColor"/></symbol><symbol id="search" viewBox="0 0 24 24"><path fill-rule="evenodd" clip-rule="evenodd" d="M18.319 14.433A8.001 8.001 0 006.343 3.868a8 8 0 0010.564 11.976l.043.045 4.242 4.243a1 1 0 101.415-1.415l-4.243-4.242a1.116 1.116 0 00-.045-.042zm-2.076-9.15a6 6 0 11-8.485 8.485 6 6 0 018.485-8.485z" fill="currentColor"/></symbol><symbol id="sun" viewBox="0 0 24 24"><path d="M12 4.8c-.3 0-.6-.3-.6-.6V1.4c0-.3.3-.6.6-.6s.6.3.6.6v2.9c0 .2-.3.5-.6.5zM12 23.2c-.3 0-.6-.3-.6-.6v-2.9c0-.3.3-.6.6-.6s.6.3.6.6v2.9c0 .4-.3.6-.6.6zM4.2 12.6H1.4c-.3 0-.6-.3-.6-.6s.3-.6.6-.6h2.9c.3 0 .6.3.6.6s-.4.6-.7.6zM22.6 12.6h-2.9c-.3 0-.6-.3-.6-.6s.3-.6.6-.6h2.9c.3 0 .6.3.6.6s-.2.6-.6.6zM6.5 7.1c-.1 0-.3-.1-.4-.2L5 5.8c-.3-.2-.3-.6 0-.8.2-.2.6-.2.8 0l1.1 1.1c.2.2.2.6 0 .8-.1.1-.2.2-.4.2zM19 19.6c-.2 0-.3-.1-.4-.2l-1.5-1.5c-.2-.2-.2-.6 0-.8.2-.2.6-.2.8 0l1.5 1.5c.2.2.2.6 0 .8-.1.1-.2.2-.4.2zM5.4 19.2c-.3 0-.6-.3-.6-.6 0-.2.1-.3.2-.4l1.1-1.1c.2-.2.6-.2.8 0 .2.2.2.6 0 .8L5.8 19c-.1.1-.3.2-.4.2zM17.5 7.1c-.3 0-.6-.3-.6-.6 0-.2.1-.3.2-.4L18.2 5c.2-.2.6-.2.8 0 .2.2.2.6 0 .8l-1.1 1.1c-.1.1-.3.2-.4.2z"/><circle cx="12" cy="12" r="5.6"/></symbol><symbol id="tools" viewBox="0 0 24 24"><path d="M24 19.2c0 .3-.3.6-.6.6h-8.9V21c0 .3-.3.6-.6.6h-2.5c-.3 0-.6-.3-.6-.6v-1.2H.6c-.3 0-.6-.3-.6-.6s.3-.6.6-.6h10.2v-1.2c0-.3.3-.6.6-.6h2.5c.3 0 .6.3.6.6v1.2h8.9c.3 0 .6.3.6.6zM24 11.8c0 .3-.3.6-.6.6H8.3v1.2c0 .3-.3.6-.6.6H5.2c-.3 0-.6-.3-.6-.6v-1.2h-4c-.3 0-.6-.3-.6-.6s.3-.6.6-.6h4V10c0-.3.3-.6.6-.6h2.5c.3 0 .6.3.6.6v1.2h15.1c.3 0 .6.3.6.6zM24 4.5c0 .3-.2.6-.6.6h-2.8v1.2c0 .3-.3.6-.6.6h-2.5c-.3 0-.6-.3-.6-.6V5.1H.6c-.3 0-.6-.3-.6-.6s.3-.6.6-.6h16.3V2.6c0-.3.3-.6.6-.6H20c.3 0 .6.3.6.6v1.2h2.8c.3 0 .6.3.6.7z"/></symbol><symbol id="tune" viewBox="0 0 24 24"><path d="M0 0h24v24H0z" fill="none"/><path d="M3 17v2h6v-2zM3 5v2h10V5zm10 16v-2h8v-2h-8v-2h-2v6zM7 9v2H3v2h4v2h2V9zm14 4v-2H11v2zm-6-4h2V7h4V5h-4V3h-2z"/></symbol></svg>