<svg xmlns="http://www.w3.org/2000/svg" viewBox="0 0 16 16">
  <path d="M15.95,7.114a.52.52,0,0,0-.515-.393,1.76,1.76,0,0,1-1.21-3.074.446.446,0,0,0,.049-.607,8.086,8.086,0,0,0-1.269-1.28.447.447,0,0,0-.61.05,1.84,1.84,0,0,1-1.995.449A1.783,1.783,0,0,1,9.321.522.447.447,0,0,0,8.928.053a8.025,8.025,0,0,0-1.8,0,.447.447,0,0,0-.4.456,1.776,1.776,0,0,1-1.1,1.706,1.857,1.857,0,0,1-1.982-.45.445.445,0,0,0-.6-.049,7.947,7.947,0,0,0-1.293,1.28A.45.45,0,0,0,1.8,3.6a1.772,1.772,0,0,1,.453,2A1.85,1.85,0,0,1,.514,6.676a.435.435,0,0,0-.461.393,7.785,7.785,0,0,0,0,1.818.515.515,0,0,0,.522.394,1.759,1.759,0,0,1,1.645,1.1,1.779,1.779,0,0,1-.446,1.977.445.445,0,0,0-.05.605,7.9,7.9,0,0,0,1.266,1.28A.447.447,0,0,0,3.6,14.2a1.848,1.848,0,0,1,2-.453,1.771,1.771,0,0,1,1.08,1.736.449.449,0,0,0,.394.469A8.116,8.116,0,0,0,7.994,16a7.377,7.377,0,0,0,.879-.05.446.446,0,0,0,.4-.459,1.775,1.775,0,0,1,1.093-1.706,1.85,1.85,0,0,1,1.977.456.446.446,0,0,0,.6.05,8.069,8.069,0,0,0,1.293-1.28.447.447,0,0,0-.046-.61,1.76,1.76,0,0,1,1.191-3.08h.1a.448.448,0,0,0,.469-.394A8.263,8.263,0,0,0,15.95,7.114Zm-7.938,3.57A2.668,2.668,0,1,1,10.68,8.017h0A2.67,2.67,0,0,1,8.012,10.684Z"/>
</svg>
