<?xml version="1.0" encoding="utf-8"?>
<!-- Generator: Adobe Illustrator 24.2.0, SVG Export Plug-In . SVG Version: 6.00 Build 0)  -->
<svg version="1.1" id="Layer_1" xmlns="http://www.w3.org/2000/svg" xmlns:xlink="http://www.w3.org/1999/xlink" x="0px" y="0px"
	 viewBox="0 0 24 24" style="enable-background:new 0 0 24 24;" xml:space="preserve">
<g>
	<path d="M19.4,14.7C13,17.2,6.5,10.7,8.9,4.3c0.3-0.7-0.5-1.4-1.2-1.2c-10.4,3.9-7.7,19.1,3.4,19.3c4.2,0,7.9-2.6,9.3-6.6
		C20.8,15.2,20,14.5,19.4,14.7z M11.2,20.7C3.1,20.7,0,10,6.7,5.7C5.7,12.1,11.6,18,18,16.9C16.5,19.2,14,20.7,11.2,20.7z"/>
	<path d="M22.7,7.5c-0.3-0.8-1.2-0.4-1.8-0.2c0.4-2-1.9-2-1.5,0c-2-1-2.6,1.1-0.4,1.4c-1.7,1.8,0.1,3.3,1.2,1c1.1,2.3,2.9,0.8,1.2-1
		C21.9,8.5,23,8.3,22.7,7.5z"/>
</g>
<circle cx="13.2" cy="5.7" r="0.8"/>
<circle cx="18" cy="2.2" r="0.8"/>
</svg>
