<?xml version="1.0" encoding="utf-8"?>
<!-- Generator: Adobe Illustrator 24.2.0, SVG Export Plug-In . SVG Version: 6.00 Build 0)  -->
<svg version="1.1" id="Layer_1" xmlns="http://www.w3.org/2000/svg" xmlns:xlink="http://www.w3.org/1999/xlink" x="0px" y="0px"
	 viewBox="0 0 24 24" style="enable-background:new 0 0 24 24;" xml:space="preserve">
<path d="M12,4.8c-0.3,0-0.6-0.3-0.6-0.6c0,0,0,0,0,0V1.4c0-0.3,0.3-0.6,0.6-0.6s0.6,0.3,0.6,0.6v2.9C12.6,4.5,12.3,4.8,12,4.8
	C12,4.8,12,4.8,12,4.8z"/>
<path d="M12,23.2c-0.3,0-0.6-0.3-0.6-0.6c0,0,0,0,0,0v-2.9c0-0.3,0.3-0.6,0.6-0.6s0.6,0.3,0.6,0.6v2.9C12.6,23,12.3,23.2,12,23.2z"
	/>
<path d="M4.2,12.6H1.4c-0.3,0-0.6-0.3-0.6-0.6s0.3-0.6,0.6-0.6h2.9c0.3,0,0.6,0.3,0.6,0.6S4.5,12.6,4.2,12.6L4.2,12.6z"/>
<path d="M22.6,12.6h-2.9c-0.3,0-0.6-0.3-0.6-0.6s0.3-0.6,0.6-0.6h2.9c0.3,0,0.6,0.3,0.6,0.6S23,12.6,22.6,12.6z"/>
<path d="M6.5,7.1C6.4,7.1,6.2,7,6.1,6.9L5,5.8C4.7,5.6,4.7,5.2,5,5c0.2-0.2,0.6-0.2,0.8,0l1.1,1.1c0.2,0.2,0.2,0.6,0,0.8
	C6.8,7,6.7,7.1,6.5,7.1z"/>
<path d="M19,19.6c-0.2,0-0.3-0.1-0.4-0.2l-1.5-1.5c-0.2-0.2-0.2-0.6,0-0.8c0.2-0.2,0.6-0.2,0.8,0l0,0l1.5,1.5c0.2,0.2,0.2,0.6,0,0.8
	C19.3,19.5,19.2,19.6,19,19.6z"/>
<path d="M5.4,19.2c-0.3,0-0.6-0.3-0.6-0.6c0-0.2,0.1-0.3,0.2-0.4l1.1-1.1c0.2-0.2,0.6-0.2,0.8,0c0.2,0.2,0.2,0.6,0,0.8L5.8,19
	C5.7,19.1,5.5,19.2,5.4,19.2z"/>
<path d="M17.5,7.1c-0.3,0-0.6-0.3-0.6-0.6c0-0.2,0.1-0.3,0.2-0.4L18.2,5c0.2-0.2,0.6-0.2,0.8,0c0.2,0.2,0.2,0.6,0,0.8l0,0l-1.1,1.1
	C17.8,7,17.6,7.1,17.5,7.1z"/>
<circle cx="12" cy="12" r="5.6"/>
</svg>
