<?xml version="1.0" encoding="utf-8"?>
<!-- Generator: Adobe Illustrator 24.2.0, SVG Export Plug-In . SVG Version: 6.00 Build 0)  -->
<svg version="1.1" id="Layer_1" xmlns="http://www.w3.org/2000/svg" xmlns:xlink="http://www.w3.org/1999/xlink" x="0px" y="0px"
	 viewBox="0 0 24 24" style="enable-background:new 0 0 24 24;" xml:space="preserve">
<g>
	<path d="M24,19.2c0,0.3-0.3,0.6-0.6,0.6h-8.9v1.2c0,0.3-0.3,0.6-0.6,0.6h-2.5c-0.3,0-0.6-0.3-0.6-0.6v-1.2H0.6
		c-0.3,0-0.6-0.3-0.6-0.6c0-0.3,0.3-0.6,0.6-0.6h10.2v-1.2c0-0.3,0.3-0.6,0.6-0.6h2.5c0.3,0,0.6,0.3,0.6,0.6v1.2h8.9
		C23.7,18.6,24,18.9,24,19.2z"/>
	<path d="M24,11.8c0,0.3-0.3,0.6-0.6,0.6H8.3v1.2c0,0.3-0.3,0.6-0.6,0.6H5.2c-0.3,0-0.6-0.3-0.6-0.6v-1.2h-4c-0.3,0-0.6-0.3-0.6-0.6
		c0-0.3,0.3-0.6,0.6-0.6h4V10c0-0.3,0.3-0.6,0.6-0.6h2.5C8,9.4,8.3,9.7,8.3,10v1.2h15.1C23.7,11.2,24,11.5,24,11.8z"/>
	<path d="M24,4.5c0,0.3-0.2,0.6-0.6,0.6h-2.8v1.2c0,0.3-0.3,0.6-0.6,0.6h-2.5c-0.3,0-0.6-0.3-0.6-0.6V5.1H0.6C0.3,5.1,0,4.8,0,4.5
		c0-0.3,0.3-0.6,0.6-0.6h16.3V2.6c0-0.3,0.3-0.6,0.6-0.6H20c0.3,0,0.6,0.3,0.6,0.6v1.2h2.8C23.7,3.8,24,4.1,24,4.5z"/>
</g>
</svg>
