<svg xmlns="http://www.w3.org/2000/svg" viewBox="0 0 16 16">
  <path d="M15.942,14.331,12.728,6.545a.786.786,0,0,0-1.453,0L8.061,14.331a.786.786,0,0,0,1.453.6l.654-1.586h3.667l.655,1.585a.786.786,0,0,0,1.472-.55c-.006-.017-.013-.034-.02-.05Zm-5.125-2.558L12,8.9l1.185,2.869Z"/>
  <path d="M8.423,11.092a.786.786,0,0,0-.172-1.1l0,0a10.229,10.229,0,0,1-1.3-1.24A18.416,18.416,0,0,0,9.49,3.631h1.153a.786.786,0,0,0,0-1.572H6.5V1.345a.786.786,0,1,0-1.572,0v.714H.786a.786.786,0,1,0,0,1.572H7.831A17.057,17.057,0,0,1,5.91,7.5a13.488,13.488,0,0,1-1.542-2.46.786.786,0,0,0-1.449.607,15.013,15.013,0,0,0,1.888,3l.1.125A14.6,14.6,0,0,1,1.55,11.655a.786.786,0,1,0,.721,1.4l.031-.017a15.4,15.4,0,0,0,3.63-3.057,10.8,10.8,0,0,0,1.39,1.289.786.786,0,0,0,1.1-.172l0,0Z"/>
</svg>
